<svg id="Layer_1" data-name="Layer 1" xmlns="http://www.w3.org/2000/svg" viewBox="0 0 432.74 171.95"><defs><style>.cls-1{fill:#fff;}</style></defs><title>swap-dark-svg</title><path id="sp_outline" data-name="sp outline" class="cls-1" d="M786.36,450.11h343.83s44.6,5.78,50,51.74c1,1,.34,33-16.34,45.62.68.34-15.32,14-29.27,13.62,0,1-38.81,0-38.81,0l.34,58.89h-35.06l.34-88.51,45.27-.68,21.45.68s18.16-5.7,18-24.51c.34,0,1.36-18.73-23.49-23.49H964.23l-169,.68s-12.33,1.64-12.25,18c0,.68,0,13.62,13.95,15.32.69-.34,34.73.68,34.73.68s21.45,0,38.81,21.81c.34.66,15.32,27.89,4.08,50.36.68,0-18,25.87-34.38,27.24,0,1-84.78,1.36-84.78,1.36l31.33-34.73,39.49.34,5.79-.34s11.7-.36,12.25-16.68c.68.68,0-14.29-15-16-.69,1-34,0-34,0s-22.15,1.71-39.84-23.83c0,.34-11.56-16.34-6.11-41.87C749.94,485.51,754.36,463.38,786.36,450.11Z" transform="translate(-747.8 -450.11)"/><path id="upper_w" data-name="upper w" class="cls-1" d="M918.79,561.77l8.51,20.42,9.19-20.42h3.23l8.85,20.42,8.34-20.42s5.79-2.56,4.94,3.74c-.17.17-9.87,23.66-9.87,23.66s-2.55,7.32-6,1.36c.34.17-7.83-18.55-7.83-18.55l-7.83,18.55s-3.57,5.11-5.62-.51c.17-.17-10.72-25.87-10.72-25.87S915.38,558.36,918.79,561.77Z" transform="translate(-747.8 -450.11)"/><path id="lower_w" data-name="lower w" class="cls-1" d="M909.94,569.43l17.53,42.89,7.32-18.55s3.74-7.15,6.64.51c.17.34,7.31,18,7.31,18L968.49,564s4.6-7.15,5.11,2.21c.17.17-21.45,51.92-21.45,51.92s-3.24,8.85-6.64,0c.51.34-7.53-17.71-7.53-17.71l-6.43,15.83s-2.38,10.56-6.64,3.24c.18-.17-21.78-52.43-21.78-52.43s-2-10.21,5.1-2.72C908.4,564.49,909.94,569.43,909.94,569.43Z" transform="translate(-747.8 -450.11)"/><path class="cls-1" d="M995.13,609.34H1014l3.32,6.13s1,6.51-4.72,2.42c-.26,0-1.28-3.06-1.28-3.06l-13.28.13-.89,3.06s-4.47,3.58-5.62-1.53C991.81,616.23,995.13,609.34,995.13,609.34Z" transform="translate(-747.8 -450.11)"/><path class="cls-1" d="M1007.51,591.6l3.06,7.14s2.81,5.49-3.06,5.24h-8.42s-2.3-5.12,1.78-5.25l3.61-.12-2.08-5.49S1003,586.49,1007.51,591.6Z" transform="translate(-747.8 -450.11)"/><path class="cls-1" d="M1004.84,570.28l18.5,46.34s5.11,7.22,5.23-2.33c.13.16-20.93-51.93-20.93-51.93s-3.58-5.74-6.51,1c0-.12-20.68,52.09-20.68,52.09s2,7.91,5.74.51C986.57,616.49,1004.84,570.28,1004.84,570.28Z" transform="translate(-747.8 -450.11)"/></svg>